<?xml version="1.0" standalone="yes"?>

<svg version="1.1" viewBox="0.0 0.0 240.0 480.0" fill="none" stroke="none" stroke-linecap="square" stroke-miterlimit="10" xmlns="http://www.w3.org/2000/svg" xmlns:xlink="http://www.w3.org/1999/xlink"><clipPath id="p.0"><path d="m0 0l240.0 0l0 480.0l-240.0 0l0 -480.0z" clip-rule="nonzero"></path></clipPath><g clip-path="url(#p.0)"><path fill="#000000" fill-opacity="0.0" d="m0 0l240.0 0l0 480.0l-240.0 0z" fill-rule="nonzero"></path><path fill="#000000" fill-opacity="0.0" d="m40.157482 125.37008l159.68503 0l0 229.25983l-159.68503 0z" fill-rule="nonzero"></path><path stroke="#ffffff" stroke-width="12.0" stroke-linejoin="round" stroke-linecap="butt" d="m40.157482 125.37008l159.68503 0l0 229.25983l-159.68503 0z" fill-rule="nonzero"></path><path fill="#000000" fill-opacity="0.0" d="m64.25197 149.46457l111.49606 0l0 49.606293l-111.49606 0z" fill-rule="nonzero"></path><path stroke="#ffffff" stroke-width="12.0" stroke-linejoin="round" stroke-linecap="butt" d="m64.25197 149.46457l111.49606 0l0 49.606293l-111.49606 0z" fill-rule="nonzero"></path><path fill="#000000" fill-opacity="0.0" d="m120.0 223.16536l55.74803 0l0 107.37007l-55.74803 0z" fill-rule="nonzero"></path><path stroke="#ffffff" stroke-width="12.0" stroke-linejoin="round" stroke-linecap="butt" d="m120.0 223.16536l55.74803 0l0 107.37007l-55.74803 0z" fill-rule="nonzero"></path><path fill="#000000" fill-opacity="0.0" d="m64.25197 223.16536l55.74803 0l0 107.37007l-55.74803 0z" fill-rule="nonzero"></path><path stroke="#ffffff" stroke-width="12.0" stroke-linejoin="round" stroke-linecap="butt" d="m64.25197 223.16536l55.74803 0l0 107.37007l-55.74803 0z" fill-rule="nonzero"></path><path fill="#000000" fill-opacity="0.0" d="m64.25197 276.8504l111.49606 0l0 53.66928l-111.49606 0z" fill-rule="nonzero"></path><path stroke="#ffffff" stroke-width="12.0" stroke-linejoin="round" stroke-linecap="butt" d="m64.25197 276.8504l111.49606 0l0 53.66928l-111.49606 0z" fill-rule="nonzero"></path></g></svg>

