<?xml version="1.0" standalone="yes"?>

<svg version="1.1" viewBox="0.0 0.0 240.0 240.0" fill="none" stroke="none" stroke-linecap="square" stroke-miterlimit="10" xmlns="http://www.w3.org/2000/svg" xmlns:xlink="http://www.w3.org/1999/xlink"><clipPath id="p.0"><path d="m0 0l240.0 0l0 240.0l-240.0 0l0 -240.0z" clip-rule="nonzero"></path></clipPath><g clip-path="url(#p.0)"><path fill="#000000" fill-opacity="0.0" d="m0 0l240.0 0l0 240.0l-240.0 0z" fill-rule="nonzero"></path><path fill="#000000" fill-opacity="0.0" d="m36.929134 36.929134l166.14172 0l0 166.14172l-166.14172 0z" fill-rule="nonzero"></path><path stroke="#ffffff" stroke-width="12.0" stroke-linejoin="round" stroke-linecap="butt" d="m36.929134 36.929134l166.14172 0l0 166.14172l-166.14172 0z" fill-rule="nonzero"></path><path fill="#000000" fill-opacity="0.0" d="m78.220474 78.220474l83.55905 0l0 83.55905l-83.55905 0z" fill-rule="nonzero"></path><path stroke="#ffffff" stroke-width="12.0" stroke-linejoin="round" stroke-linecap="butt" d="m78.220474 78.220474l83.55905 0l0 83.55905l-83.55905 0z" fill-rule="nonzero"></path><path fill="#000000" fill-opacity="0.0" d="m106.07874 78.220474l27.842522 0l0 83.55905l-27.842522 0z" fill-rule="nonzero"></path><path stroke="#ffffff" stroke-width="12.0" stroke-linejoin="round" stroke-linecap="butt" d="m106.07874 78.220474l27.842522 0l0 83.55905l-27.842522 0z" fill-rule="nonzero"></path><path fill="#000000" fill-opacity="0.0" d="m78.220474 106.07874l83.55905 0l0 27.842522l-83.55905 0z" fill-rule="nonzero"></path><path stroke="#ffffff" stroke-width="12.0" stroke-linejoin="round" stroke-linecap="butt" d="m78.220474 106.07874l83.55905 0l0 27.842522l-83.55905 0z" fill-rule="nonzero"></path></g></svg>

