<?xml version="1.0" standalone="yes"?>

<svg version="1.1" viewBox="0.0 0.0 480.0 240.0" fill="none" stroke="none" stroke-linecap="square" stroke-miterlimit="10" xmlns="http://www.w3.org/2000/svg" xmlns:xlink="http://www.w3.org/1999/xlink"><clipPath id="p.0"><path d="m0 0l480.0 0l0 240.0l-480.0 0l0 -240.0z" clip-rule="nonzero"></path></clipPath><g clip-path="url(#p.0)"><path fill="#000000" fill-opacity="0.0" d="m0 0l480.0 0l0 240.0l-480.0 0z" fill-rule="nonzero"></path><path fill="#000000" fill-opacity="0.0" d="m83.14567 33.514435l313.7008 0l0 172.97638l-313.7008 0z" fill-rule="nonzero"></path><path stroke="#ffffff" stroke-width="12.0" stroke-linejoin="round" stroke-linecap="butt" d="m83.14567 33.514435l313.7008 0l0 172.97638l-313.7008 0z" fill-rule="nonzero"></path><path fill="#000000" fill-opacity="0.0" d="m83.14567 33.509186l156.8504 99.71654l156.8504 -99.71654z" fill-rule="nonzero"></path><path stroke="#ffffff" stroke-width="12.0" stroke-linejoin="round" stroke-linecap="butt" d="m83.14567 33.509186l156.8504 99.71654l156.8504 -99.71654z" fill-rule="nonzero"></path><path fill="#000000" fill-opacity="0.0" d="m219.04265 120.66404l-135.9055 85.826775" fill-rule="nonzero"></path><path stroke="#ffffff" stroke-width="12.0" stroke-linejoin="round" stroke-linecap="butt" d="m219.04265 120.66404l-135.9055 85.826775" fill-rule="nonzero"></path><path fill="#000000" fill-opacity="0.0" d="m260.95734 120.66404l135.90552 85.826775" fill-rule="nonzero"></path><path stroke="#ffffff" stroke-width="12.0" stroke-linejoin="round" stroke-linecap="butt" d="m260.95734 120.66404l135.90552 85.826775" fill-rule="nonzero"></path></g></svg>

