<?xml version="1.0" standalone="yes"?>

<svg version="1.1" viewBox="0.0 0.0 240.0 240.0" fill="none" stroke="none" stroke-linecap="square" stroke-miterlimit="10" xmlns="http://www.w3.org/2000/svg" xmlns:xlink="http://www.w3.org/1999/xlink"><clipPath id="p.0"><path d="m0 0l240.0 0l0 240.0l-240.0 0l0 -240.0z" clip-rule="nonzero"></path></clipPath><g clip-path="url(#p.0)"><path fill="#000000" fill-opacity="0.0" d="m0 0l240.0 0l0 240.0l-240.0 0z" fill-rule="nonzero"></path><path fill="#000000" fill-opacity="0.0" d="m82.83465 120.0l0 0c0 -20.525856 16.639496 -37.16535 37.16535 -37.16535l0 0c9.856857 0 19.310013 3.915619 26.279877 10.885475c6.9698486 6.9698563 10.885483 16.423012 10.885483 26.279877l0 0c0 20.525864 -16.639496 37.16536 -37.16536 37.16536l0 0c-20.525856 0 -37.16535 -16.639496 -37.16535 -37.16536z" fill-rule="nonzero"></path><path stroke="#ffffff" stroke-width="12.0" stroke-linejoin="round" stroke-linecap="butt" d="m82.83465 120.0l0 0c0 -20.525856 16.639496 -37.16535 37.16535 -37.16535l0 0c9.856857 0 19.310013 3.915619 26.279877 10.885475c6.9698486 6.9698563 10.885483 16.423012 10.885483 26.279877l0 0c0 20.525864 -16.639496 37.16536 -37.16536 37.16536l0 0c-20.525856 0 -37.16535 -16.639496 -37.16535 -37.16536z" fill-rule="nonzero"></path><path fill="#000000" fill-opacity="0.0" d="m91.70079 53.88714l28.29921 -24.944881l28.29921 24.944881z" fill-rule="nonzero"></path><path stroke="#ffffff" stroke-width="12.0" stroke-linejoin="round" stroke-linecap="butt" d="m91.70079 53.88714l28.29921 -24.944881l28.29921 24.944881z" fill-rule="nonzero"></path><path fill="#000000" fill-opacity="0.0" d="m148.29921 186.11285l-28.29921 24.944885l-28.29921 -24.944885z" fill-rule="nonzero"></path><path stroke="#ffffff" stroke-width="12.0" stroke-linejoin="round" stroke-linecap="butt" d="m148.29921 186.11285l-28.29921 24.944885l-28.29921 -24.944885z" fill-rule="nonzero"></path><path fill="#000000" fill-opacity="0.0" d="m186.11285 91.70079l24.944885 28.29921l-24.944885 28.29921z" fill-rule="nonzero"></path><path stroke="#ffffff" stroke-width="12.0" stroke-linejoin="round" stroke-linecap="butt" d="m186.11285 91.70079l24.944885 28.29921l-24.944885 28.29921z" fill-rule="nonzero"></path><path fill="#000000" fill-opacity="0.0" d="m53.88714 148.29921l-24.944881 -28.29921l24.944881 -28.29921z" fill-rule="nonzero"></path><path stroke="#ffffff" stroke-width="12.0" stroke-linejoin="round" stroke-linecap="butt" d="m53.88714 148.29921l-24.944881 -28.29921l24.944881 -28.29921z" fill-rule="nonzero"></path></g></svg>

