<?xml version="1.0" standalone="yes"?>

<svg version="1.1" viewBox="0.0 0.0 240.0 240.0" fill="none" stroke="none" stroke-linecap="square" stroke-miterlimit="10" xmlns="http://www.w3.org/2000/svg" xmlns:xlink="http://www.w3.org/1999/xlink"><clipPath id="p.0"><path d="m0 0l240.0 0l0 240.0l-240.0 0l0 -240.0z" clip-rule="nonzero"></path></clipPath><g clip-path="url(#p.0)"><path fill="#000000" fill-opacity="0.0" d="m0 0l240.0 0l0 240.0l-240.0 0z" fill-rule="nonzero"></path><path fill="#000000" fill-opacity="0.0" d="m106.07874 119.99869l0 0c0 -7.6884995 6.2327576 -13.921257 13.921257 -13.921257l0 0c3.6921463 0 7.233078 1.4666977 9.843811 4.0774384c2.6107483 2.6107407 4.0774536 6.1516724 4.0774536 9.843819l0 0c0 7.6884995 -6.232765 13.921265 -13.921265 13.921265l0 0c-7.6884995 0 -13.921257 -6.232765 -13.921257 -13.921265z" fill-rule="nonzero"></path><path stroke="#ffffff" stroke-width="12.0" stroke-linejoin="round" stroke-linecap="butt" d="m106.07874 119.99869l0 0c0 -7.6884995 6.2327576 -13.921257 13.921257 -13.921257l0 0c3.6921463 0 7.233078 1.4666977 9.843811 4.0774384c2.6107483 2.6107407 4.0774536 6.1516724 4.0774536 9.843819l0 0c0 7.6884995 -6.232765 13.921265 -13.921265 13.921265l0 0c-7.6884995 0 -13.921257 -6.232765 -13.921257 -13.921265z" fill-rule="nonzero"></path><path fill="#000000" fill-opacity="0.0" d="m163.65355 119.99869l0 0c0 -7.6884995 6.2327576 -13.921257 13.921249 -13.921257l0 0c3.692154 0 7.233078 1.4666977 9.843826 4.0774384c2.610733 2.6107407 4.0774384 6.1516724 4.0774384 9.843819l0 0c0 7.6884995 -6.2327576 13.921265 -13.921265 13.921265l0 0c-7.688492 0 -13.921249 -6.232765 -13.921249 -13.921265z" fill-rule="nonzero"></path><path stroke="#ffffff" stroke-width="12.0" stroke-linejoin="round" stroke-linecap="butt" d="m163.65355 119.99869l0 0c0 -7.6884995 6.2327576 -13.921257 13.921249 -13.921257l0 0c3.692154 0 7.233078 1.4666977 9.843826 4.0774384c2.610733 2.6107407 4.0774384 6.1516724 4.0774384 9.843819l0 0c0 7.6884995 -6.2327576 13.921265 -13.921265 13.921265l0 0c-7.688492 0 -13.921249 -6.232765 -13.921249 -13.921265z" fill-rule="nonzero"></path><path fill="#000000" fill-opacity="0.0" d="m48.503937 119.99869l0 0c0 -7.6884995 6.2327614 -13.921257 13.921261 -13.921257l0 0c3.69215 0 7.233074 1.4666977 9.843815 4.0774384c2.6107407 2.6107407 4.077446 6.1516724 4.077446 9.843819l0 0c0 7.6884995 -6.232765 13.921265 -13.921261 13.921265l0 0c-7.6884995 0 -13.921261 -6.232765 -13.921261 -13.921265z" fill-rule="nonzero"></path><path stroke="#ffffff" stroke-width="12.0" stroke-linejoin="round" stroke-linecap="butt" d="m48.503937 119.99869l0 0c0 -7.6884995 6.2327614 -13.921257 13.921261 -13.921257l0 0c3.69215 0 7.233074 1.4666977 9.843815 4.0774384c2.6107407 2.6107407 4.077446 6.1516724 4.077446 9.843819l0 0c0 7.6884995 -6.232765 13.921265 -13.921261 13.921265l0 0c-7.6884995 0 -13.921261 -6.232765 -13.921261 -13.921265z" fill-rule="nonzero"></path><path fill="#000000" fill-opacity="0.0" d="m106.07874 177.57349l0 0c0 -7.688492 6.2327576 -13.921249 13.921257 -13.921249l0 0c3.6921463 0 7.233078 1.4666901 9.843811 4.0774384c2.6107483 2.6107483 4.0774536 6.1516724 4.0774536 9.843811l0 0c0 7.688507 -6.232765 13.921265 -13.921265 13.921265l0 0c-7.6884995 0 -13.921257 -6.2327576 -13.921257 -13.921265z" fill-rule="nonzero"></path><path stroke="#ffffff" stroke-width="12.0" stroke-linejoin="round" stroke-linecap="butt" d="m106.07874 177.57349l0 0c0 -7.688492 6.2327576 -13.921249 13.921257 -13.921249l0 0c3.6921463 0 7.233078 1.4666901 9.843811 4.0774384c2.6107483 2.6107483 4.0774536 6.1516724 4.0774536 9.843811l0 0c0 7.688507 -6.232765 13.921265 -13.921265 13.921265l0 0c-7.6884995 0 -13.921257 -6.2327576 -13.921257 -13.921265z" fill-rule="nonzero"></path><path fill="#000000" fill-opacity="0.0" d="m163.65355 177.57349l0 0c0 -7.688492 6.2327576 -13.921249 13.921249 -13.921249l0 0c3.692154 0 7.233078 1.4666901 9.843826 4.0774384c2.610733 2.6107483 4.0774384 6.1516724 4.0774384 9.843811l0 0c0 7.688507 -6.2327576 13.921265 -13.921265 13.921265l0 0c-7.688492 0 -13.921249 -6.2327576 -13.921249 -13.921265z" fill-rule="nonzero"></path><path stroke="#ffffff" stroke-width="12.0" stroke-linejoin="round" stroke-linecap="butt" d="m163.65355 177.57349l0 0c0 -7.688492 6.2327576 -13.921249 13.921249 -13.921249l0 0c3.692154 0 7.233078 1.4666901 9.843826 4.0774384c2.610733 2.6107483 4.0774384 6.1516724 4.0774384 9.843811l0 0c0 7.688507 -6.2327576 13.921265 -13.921265 13.921265l0 0c-7.688492 0 -13.921249 -6.2327576 -13.921249 -13.921265z" fill-rule="nonzero"></path><path fill="#000000" fill-opacity="0.0" d="m48.503937 177.57349l0 0c0 -7.688492 6.2327614 -13.921249 13.921261 -13.921249l0 0c3.69215 0 7.233074 1.4666901 9.843815 4.0774384c2.6107407 2.6107483 4.077446 6.1516724 4.077446 9.843811l0 0c0 7.688507 -6.232765 13.921265 -13.921261 13.921265l0 0c-7.6884995 0 -13.921261 -6.2327576 -13.921261 -13.921265z" fill-rule="nonzero"></path><path stroke="#ffffff" stroke-width="12.0" stroke-linejoin="round" stroke-linecap="butt" d="m48.503937 177.57349l0 0c0 -7.688492 6.2327614 -13.921249 13.921261 -13.921249l0 0c3.69215 0 7.233074 1.4666901 9.843815 4.0774384c2.6107407 2.6107483 4.077446 6.1516724 4.077446 9.843811l0 0c0 7.688507 -6.232765 13.921265 -13.921261 13.921265l0 0c-7.6884995 0 -13.921261 -6.2327576 -13.921261 -13.921265z" fill-rule="nonzero"></path><path fill="#000000" fill-opacity="0.0" d="m106.07874 62.423885l0 0c0 -7.6884995 6.2327576 -13.921261 13.921257 -13.921261l0 0c3.6921463 0 7.233078 1.4667015 9.843811 4.077442c2.6107483 2.6107445 4.0774536 6.1516685 4.0774536 9.843819l0 0c0 7.6884956 -6.232765 13.921261 -13.921265 13.921261l0 0c-7.6884995 0 -13.921257 -6.232765 -13.921257 -13.921261z" fill-rule="nonzero"></path><path stroke="#ffffff" stroke-width="12.0" stroke-linejoin="round" stroke-linecap="butt" d="m106.07874 62.423885l0 0c0 -7.6884995 6.2327576 -13.921261 13.921257 -13.921261l0 0c3.6921463 0 7.233078 1.4667015 9.843811 4.077442c2.6107483 2.6107445 4.0774536 6.1516685 4.0774536 9.843819l0 0c0 7.6884956 -6.232765 13.921261 -13.921265 13.921261l0 0c-7.6884995 0 -13.921257 -6.232765 -13.921257 -13.921261z" fill-rule="nonzero"></path><path fill="#000000" fill-opacity="0.0" d="m163.65355 62.423885l0 0c0 -7.6884995 6.2327576 -13.921261 13.921249 -13.921261l0 0c3.692154 0 7.233078 1.4667015 9.843826 4.077442c2.610733 2.6107445 4.0774384 6.1516685 4.0774384 9.843819l0 0c0 7.6884956 -6.2327576 13.921261 -13.921265 13.921261l0 0c-7.688492 0 -13.921249 -6.232765 -13.921249 -13.921261z" fill-rule="nonzero"></path><path stroke="#ffffff" stroke-width="12.0" stroke-linejoin="round" stroke-linecap="butt" d="m163.65355 62.423885l0 0c0 -7.6884995 6.2327576 -13.921261 13.921249 -13.921261l0 0c3.692154 0 7.233078 1.4667015 9.843826 4.077442c2.610733 2.6107445 4.0774384 6.1516685 4.0774384 9.843819l0 0c0 7.6884956 -6.2327576 13.921261 -13.921265 13.921261l0 0c-7.688492 0 -13.921249 -6.232765 -13.921249 -13.921261z" fill-rule="nonzero"></path><path fill="#000000" fill-opacity="0.0" d="m48.503937 62.423885l0 0c0 -7.6884995 6.2327614 -13.921261 13.921261 -13.921261l0 0c3.69215 0 7.233074 1.4667015 9.843815 4.077442c2.6107407 2.6107445 4.077446 6.1516685 4.077446 9.843819l0 0c0 7.6884956 -6.232765 13.921261 -13.921261 13.921261l0 0c-7.6884995 0 -13.921261 -6.232765 -13.921261 -13.921261z" fill-rule="nonzero"></path><path stroke="#ffffff" stroke-width="12.0" stroke-linejoin="round" stroke-linecap="butt" d="m48.503937 62.423885l0 0c0 -7.6884995 6.2327614 -13.921261 13.921261 -13.921261l0 0c3.69215 0 7.233074 1.4667015 9.843815 4.077442c2.6107407 2.6107445 4.077446 6.1516685 4.077446 9.843819l0 0c0 7.6884956 -6.232765 13.921261 -13.921261 13.921261l0 0c-7.6884995 0 -13.921261 -6.232765 -13.921261 -13.921261z" fill-rule="nonzero"></path></g></svg>

